#!OML:ASF H:\Dans Jumps\Project 1\Capture day 1\Session 1\subject.ASF
:FULLY-SPECIFIED
:DEGREES
175
root 0.605969 17.423 -14.1933 5.71932 -0.955534 -1.4115
lowerback 0.370419 -0.434702 0.12544
upperback 4.21322 -0.642042 1.67569
thorax 4.14771 -0.34984 1.63654
lowerneck -13.148 0.758596 -1.85841
upperneck 32.6722 1.48054 0.382739
head 13.1044 0.465696 0.693272
rclavicle -3.67752e-015 1.51076e-014
rhumerus -23.8222 -15.9457 -79.5176
rradius 25.4814
rwrist 30.6558
rhand -18.5542 -26.4139
rfingers 7.12502
rthumb 7.73546 -56.2524
lclavicle -3.67752e-015 1.51076e-014
lhumerus -20.048 1.21151 86.5526
lradius 19.005
lwrist 3.10096
lhand -25.6055 -3.22467
lfingers 7.12502
lthumb 0.926785 26.7531
rfemur -16.686 -1.30236 19.7459
rtibia 27.7743
rfoot -15.3867 -3.20298
rtoes 9.49362
lfemur -15.7593 7.59018 -19.287
ltibia 25.9872
lfoot -13.6515 5.23791
ltoes 3.01813
176
root 0.604956 17.4204 -14.1977 5.73648 -0.963721 -1.42393
lowerback 0.402564 -0.43109 0.142422
upperback 4.22178 -0.637385 1.67743
thorax 4.13809 -0.346956 1.62916
lowerneck -13.1708 0.765245 -1.89215
upperneck 32.6618 1.48808 0.418903
head 13.104 0.469685 0.714481
rclavicle 5.66536e-015 -7.15625e-015
rhumerus -23.84 -15.9228 -79.5099
rradius 25.5086
rwrist 30.6125
rhand -18.5366 -26.4247
rfingers 7.12502
rthumb 7.75247 -56.2625
lclavicle 5.66536e-015 -7.15625e-015
lhumerus -20.0656 1.18059 86.5415
lradius 19.0204
lwrist 3.15554
lhand -25.6028 -3.19026
lfingers 7.12502
lthumb 0.929369 26.7875
rfemur -16.7659 -1.29656 19.764
rtibia 27.856
rfoot -15.4099 -3.20016
rtoes 9.49696
lfemur -15.8532 7.60076 -19.2748
ltibia 26.0998
lfoot -13.6837 5.24815
ltoes 2.99072
177
root 0.604063 17.4174 -14.2024 5.75594 -0.975205 -1.43754
lowerback 0.435803 -0.427334 0.160892
upperback 4.23053 -0.632569 1.67986
thorax 4.12805 -0.343954 1.62168
lowerneck -13.188 0.773244 -1.93262
upperneck 32.6423 1.49776 0.459467
head 13.0984 0.474481 0.738768
rclavicle 8.05078e-015 2.38542e-015
rhumerus -23.8608 -15.9017 -79.4995
rradius 25.5332
rwrist 30.5747
rhand -18.5196 -26.4389
rfingers 7.12502
rthumb 7.76887 -56.2762
lclavicle 8.05078e-015 2.38542e-015
lhumerus -20.0869 1.14569 86.5317
lradius 19.0355
lwrist 3.21777
lhand -25.6089 -3.17492
lfingers 7.12502
lthumb 0.923465 26.8028
rfemur -16.8534 -1.29254 19.7831
rtibia 27.9453
rfoot -15.4345 -3.19578
rtoes 9.47987
lfemur -15.9576 7.6164 -19.2626
ltibia 26.2277
lfoot -13.723 5.25801
ltoes 2.96067
178
root 0.603194 17.414 -14.2073 5.77841 -0.991059 -1.45233
lowerback 0.469998 -0.422861 0.179179
upperback 4.23956 -0.626814 1.68338
thorax 4.11775 -0.340516 1.61546
lowerneck -13.2044 0.781031 -1.96891
upperneck 32.6169 1.50939 0.489596
head 13.0903 0.479339 0.758475
rclavicle -2.98177e-015 1.41137e-014
rhumerus -23.8795 -15.8901 -79.4844
rradius 25.5466
rwrist 30.5509
rhand -18.5083 -26.4491
rfingers 7.12502
rthumb 7.77971 -56.286
lclavicle -2.98177e-015 1.41137e-014
lhumerus -20.1134 1.10823 86.5228
lradius 19.0549
lwrist 3.29148
lhand -25.5933 -3.12625
lfingers 7.12502
lthumb 0.938554 26.8514
rfemur -16.9517 -1.29044 19.804
rtibia 28.0431
rfoot -15.4597 -3.19129
rtoes 9.42915
lfemur -16.0731 7.63956 -19.2503
ltibia 26.3692
lfoot -13.7681 5.26757
ltoes 2.925
179
root 0.602317 17.4103 -14.2125 5.80353 -1.00936 -1.46717
lowerback 0.504901 -0.418136 0.196289
upperback 4.25012 -0.620729 1.68761
thorax 4.10867 -0.33698 1.61063
lowerneck -13.219 0.787805 -1.99845
upperneck 32.5801 1.52191 0.506505
head 13.0772 0.483822 0.771854
rclavicle 3.27995e-015 4.57205e-015
rhumerus -23.8976 -15.8816 -79.4668
rradius 25.5561
rwrist 30.5346
rhand -18.5083 -26.4538
rfingers 7.12502
rthumb 7.77975 -56.2907
lclavicle 3.27995e-015 4.57205e-015
lhumerus -20.1457 1.08025 86.5126
lradius 19.0818
lwrist 3.36715
lhand -25.5916 -3.11651
lfingers 7.12502
lthumb 0.940235 26.8612
rfemur -17.0601 -1.29077 19.8256
rtibia 28.1499
rfoot -15.4878 -3.18766
rtoes 9.35157
lfemur -16.199 7.66888 -19.2387
ltibia 26.5229
lfoot -13.8187 5.27655
ltoes 2.8837
180
root 0.601369 17.4062 -14.218 5.83063 -1.02942 -1.47765
lowerback 0.542692 -0.413608 0.207182
upperback 4.2608 -0.614748 1.69178
thorax 4.09814 -0.333718 1.60926
lowerneck -13.2294 0.793239 -2.00429
upperneck 32.5334 1.53573 0.49316
head 13.0595 0.487925 0.76937
rclavicle 1.19271e-015 -3.18055e-015
rhumerus -23.9176 -15.8753 -79.4457
rradius 25.5614
rwrist 30.5246
rhand -18.5203 -26.4465
rfingers 7.12502
rthumb 7.76817 -56.2838
lclavicle 1.19271e-015 -3.18055e-015
lhumerus -20.1869 1.06029 86.5014
lradius 19.1182
lwrist 3.4445
lhand -25.5964 -3.13419
lfingers 7.12502
lthumb 0.935522 26.8435
rfemur -17.1784 -1.29212 19.8431
rtibia 28.267
rfoot -15.5188 -3.18633
rtoes 9.24474
lfemur -16.334 7.70039 -19.2324
ltibia 26.6878
lfoot -13.8739 5.28795
ltoes 2.83761
181
root 0.600313 17.4018 -14.2238 5.85975 -1.05009 -1.48721
lowerback 0.585349 -0.408887 0.216513
upperback 4.27074 -0.608385 1.69557
thorax 4.0841 -0.330301 1.60839
lowerneck -13.2381 0.797247 -1.99241
upperneck 32.4802 1.54856 0.461282
head 13.0392 0.491403 0.756366
rclavicle -1.98785e-015 -3.18055e-015
rhumerus -23.9433 -15.8693 -79.4229
rradius 25.5678
rwrist 30.5142
rhand -18.5396 -26.4307
rfingers 7.12502
rthumb 7.74958 -56.2687
lclavicle -1.98785e-015 -3.18055e-015
lhumerus -20.2381 1.04491 86.488
lradius 19.1636
lwrist 3.52073
lhand -25.6115 -3.1625
lfingers 7.12502
lthumb 0.920987 26.8153
rfemur -17.3063 -1.29415 19.8602
rtibia 28.3953
rfoot -15.5569 -3.18577
rtoes 9.12691
lfemur -16.4779 7.73142 -19.227
ltibia 26.8636
lfoot -13.9328 5.30142
ltoes 2.79965
182
root 0.599185 17.397 -14.2299 5.88922 -1.07165 -1.49433
lowerback 0.63243 -0.404047 0.223111
upperback 4.28121 -0.601724 1.69828
thorax 4.06811 -0.32681 1.60797
lowerneck -13.2419 0.801445 -1.97711
upperneck 32.4202 1.5609 0.428076
head 13.015 0.495002 0.742088
rclavicle -1.59028e-015 -8.54774e-015
rhumerus -23.9738 -15.8572 -79.4007
rradius 25.5772
rwrist 30.4956
rhand -18.5608 -26.4076
rfingers 7.12502
rthumb 7.72909 -56.2463
lclavicle -1.59028e-015 -8.54774e-015
lhumerus -20.2967 1.0314 86.4726
lradius 19.2146
lwrist 3.5944
lhand -25.6343 -3.21553
lfingers 7.12502
lthumb 0.898908 26.7623
rfemur -17.4407 -1.29778 19.8747
rtibia 28.5354
rfoot -15.6037 -3.18192
rtoes 9.01503
lfemur -16.6281 7.76042 -19.2241
ltibia 27.0498
lfoot -13.9954 5.31926
ltoes 2.76687
